<svg width="485" height="129" viewBox="0 0 485 129" fill="none" xmlns="http://www.w3.org/2000/svg">
<path d="M155 114V15H179.3V114H155ZM167.15 78.75V58.95H217.55V78.75H167.15ZM167.15 35.25V15H222.65V35.25H167.15ZM241.002 116.1C237.002 116.1 233.202 115.4 229.602 114C226.002 112.6 223.052 110.35 220.752 107.25C218.452 104.05 217.302 99.8 217.302 94.5C217.302 89.6 218.252 85.65 220.152 82.65C222.052 79.55 224.602 77.1 227.802 75.3C231.002 73.4 234.502 72 238.302 71.1C242.102 70.1 245.852 69.25 249.552 68.55C254.752 67.55 258.652 66.75 261.252 66.15C263.852 65.55 265.602 64.85 266.502 64.05C267.502 63.25 268.002 62.15 268.002 60.75C268.002 57.85 266.902 55.65 264.702 54.15C262.602 52.65 259.802 51.9 256.302 51.9C254.102 51.9 251.902 52.3 249.702 53.1C247.502 53.9 245.702 55.35 244.302 57.45C242.902 59.45 242.252 62.35 242.352 66.15L220.752 64.65C220.552 58.35 221.502 53.15 223.602 49.05C225.702 44.85 228.552 41.6 232.152 39.3C235.852 36.9 239.852 35.2 244.152 34.2C248.552 33.2 252.902 32.7 257.202 32.7C265.102 32.7 271.602 34.2 276.702 37.2C281.802 40.1 285.552 44.35 287.952 49.95C290.452 55.45 291.702 62.15 291.702 70.05V84.15C291.702 87.45 291.702 90.8 291.702 94.2C291.702 97.5 291.702 100.8 291.702 104.1C291.702 107.4 291.702 110.7 291.702 114H270.702C270.702 110.4 270.702 106.75 270.702 103.05C270.702 99.35 270.702 95.45 270.702 91.35H269.802C269.402 95.85 267.902 100 265.302 103.8C262.802 107.5 259.452 110.5 255.252 112.8C251.152 115 246.402 116.1 241.002 116.1ZM251.052 98.4C252.752 98.4 254.552 98.1 256.452 97.5C258.452 96.8 260.302 95.7 262.002 94.2C263.802 92.7 265.252 90.65 266.352 88.05C267.452 85.35 268.002 82.05 268.002 78.15V74.55L272.052 74.1C271.252 75.4 269.902 76.45 268.002 77.25C266.202 78.05 264.152 78.7 261.852 79.2C259.552 79.6 257.202 80.05 254.802 80.55C252.502 80.95 250.352 81.55 248.352 82.35C246.352 83.05 244.702 84.05 243.402 85.35C242.202 86.55 241.602 88.25 241.602 90.45C241.602 93.05 242.502 95.05 244.302 96.45C246.202 97.75 248.452 98.4 251.052 98.4ZM296.597 114V72.15V8.99999H320.897V28.8C320.897 30.9 320.747 33.7 320.447 37.2C320.247 40.6 319.897 44.25 319.397 48.15C318.997 52.05 318.547 55.8 318.047 59.4C317.647 62.9 317.297 65.85 316.997 68.25H318.347C319.247 59.95 320.797 53.2 322.997 48C325.197 42.7 328.197 38.85 331.997 36.45C335.797 33.95 340.397 32.7 345.797 32.7C354.297 32.7 360.597 35.75 364.697 41.85C368.797 47.85 370.847 56.95 370.847 69.15V114H346.547V70.2C346.547 64.6 345.797 60.5 344.297 57.9C342.797 55.3 340.347 54 336.947 54C333.947 54 331.247 55.15 328.847 57.45C326.447 59.65 324.497 63.2 322.997 68.1C321.597 73 320.897 79.35 320.897 87.15V114H296.597ZM375.826 114V34.8H400.126V114H375.826ZM387.826 29.1C383.226 29.1 379.676 28.15 377.176 26.25C374.776 24.25 373.576 21.4 373.576 17.7C373.576 13.9 374.776 11.05 377.176 9.14999C379.676 7.14999 383.226 6.14999 387.826 6.14999C392.526 6.14999 396.076 7.14999 398.476 9.14999C400.976 11.15 402.226 14 402.226 17.7C402.226 21.3 400.976 24.1 398.476 26.1C396.076 28.1 392.526 29.1 387.826 29.1ZM440.632 116.1C435.332 116.1 430.382 115.55 425.782 114.45C421.282 113.45 417.332 111.8 413.932 109.5C410.632 107.2 408.082 104.15 406.282 100.35C404.582 96.45 403.882 91.75 404.182 86.25L425.332 84.45C425.532 87.75 426.282 90.5 427.582 92.7C428.882 94.8 430.682 96.35 432.982 97.35C435.282 98.35 438.082 98.85 441.382 98.85C444.482 98.85 447.132 98.35 449.332 97.35C451.632 96.25 452.782 94.45 452.782 91.95C452.782 90.65 452.382 89.6 451.582 88.8C450.782 87.9 449.282 87.1 447.082 86.4C444.982 85.6 441.882 84.7 437.782 83.7C432.682 82.4 428.082 81.1 423.982 79.8C419.882 78.5 416.382 76.95 413.482 75.15C410.582 73.35 408.382 71.15 406.882 68.55C405.382 65.85 404.632 62.55 404.632 58.65C404.632 53.15 406.082 48.5 408.982 44.7C411.982 40.8 416.082 37.85 421.282 35.85C426.482 33.75 432.482 32.7 439.282 32.7C445.382 32.7 451.082 33.65 456.382 35.55C461.682 37.45 465.832 40.55 468.832 44.85C471.932 49.15 473.082 54.85 472.282 61.95L451.582 63.9C451.882 61 451.482 58.55 450.382 56.55C449.282 54.45 447.682 52.9 445.582 51.9C443.482 50.8 440.932 50.25 437.932 50.25C434.532 50.25 431.882 50.9 429.982 52.2C428.182 53.4 427.282 54.95 427.282 56.85C427.282 58.35 427.832 59.65 428.932 60.75C430.132 61.75 431.932 62.65 434.332 63.45C436.832 64.15 440.032 64.95 443.932 65.85C447.332 66.55 450.882 67.45 454.582 68.55C458.282 69.65 461.732 71.15 464.932 73.05C468.132 74.85 470.732 77.25 472.732 80.25C474.732 83.25 475.732 87.05 475.732 91.65C475.732 96.55 474.382 100.85 471.682 104.55C468.982 108.25 465.032 111.1 459.832 113.1C454.632 115.1 448.232 116.1 440.632 116.1Z" fill="#042F2E"/>
<path d="M0 15H49.5V64.5H0V15Z" fill="#042F2E"/>
<path d="M49.5 64.5V15L99 15C99 42.3381 76.8381 64.5 49.5 64.5Z" fill="#042F2E"/>
<path d="M49.5 114V64.5L99 64.5C99 91.8381 76.8381 114 49.5 114Z" fill="#14532D"/>
<path d="M0 64.5H49.5V114H0V64.5Z" fill="#14532D"/>
</svg>
